<?xml version="1.0" encoding="UTF-8" standalone="no"?>
<!-- Created with Inkscape (http://www.inkscape.org/) -->

<svg
   width="93.616646mm"
   height="26.547989mm"
   viewBox="0 0 93.616646 26.547989"
   version="1.1"
   id="svg11318"
   inkscape:export-filename="logo.svg"
   inkscape:export-xdpi="96"
   inkscape:export-ydpi="96"
   xmlns:inkscape="http://www.inkscape.org/namespaces/inkscape"
   xmlns:sodipodi="http://sodipodi.sourceforge.net/DTD/sodipodi-0.dtd"
   xmlns="http://www.w3.org/2000/svg"
   xmlns:svg="http://www.w3.org/2000/svg">
  <sodipodi:namedview
     id="namedview11320"
     pagecolor="#ffffff"
     bordercolor="#000000"
     borderopacity="0.25"
     inkscape:showpageshadow="2"
     inkscape:pageopacity="0.0"
     inkscape:pagecheckerboard="0"
     inkscape:deskcolor="#d1d1d1"
     inkscape:document-units="mm"
     showgrid="false" />
  <defs
     id="defs11315" />
  <g
     inkscape:label="Calque 1"
     inkscape:groupmode="layer"
     id="layer1"
     transform="translate(-107.9715,-105.2626)">
    <g
       aria-label="TYPHON"
       transform="matrix(2.2579975,0,0,2.2579975,-297.39602,-77.82446)"
       id="text8404"
       style="font-family:'Droid Sans Mono Dotted for Powerline';-inkscape-font-specification:'Droid Sans Mono Dotted for Powerline';white-space:pre;shape-inside:url(#rect8406);stroke:#000000;paint-order:stroke fill markers">
      <path
         d="m 181.92523,90.524839 v -6.135534 h -2.4 v -0.984 h 5.88 v 0.984 h -2.4 v 6.135534 z"
         style="font-family:'JetBrainsMonoNL Nerd Font';-inkscape-font-specification:'JetBrainsMonoNL Nerd Font';stroke:none"
         id="path10660"
         sodipodi:nodetypes="ccccccccc" />
      <path
         d="m 194.36924,90.524839 v -7.119534 h 2.82 c 0.816,0 1.464,0.236 1.944,0.708 0.488,0.464 0.732,0.853648 0.732,1.637648 0,0.784 -0.244,1.177648 -0.732,1.649648 -0.48,0.464 -1.128,0.696 -1.944,0.696 h -1.74 v 2.428238 z m 1.08,-3.400238 h 1.74 c 0.472,0 0.848,-0.144 1.128,-0.432 0.288,-0.296 0.432,-0.453648 0.432,-0.941648 0,-0.496 -0.144,-0.653648 -0.432,-0.941648 -0.28,-0.288 -0.656,-0.432 -1.128,-0.432 h -1.74 z"
         style="font-family:'JetBrainsMonoNL Nerd Font';-inkscape-font-specification:'JetBrainsMonoNL Nerd Font';stroke:none"
         id="path10664"
         sodipodi:nodetypes="ccscscsccccscscscc" />
      <path
         d="m 201.58125,90.524839 v -7.119534 h 1.08 V 86.6806 h 2.808 v -3.275295 h 1.08 v 7.119534 h -1.08 V 87.6646 h -2.808 v 2.860239 z"
         style="font-family:'JetBrainsMonoNL Nerd Font';-inkscape-font-specification:'JetBrainsMonoNL Nerd Font';stroke:none"
         id="path10666"
         sodipodi:nodetypes="ccccccccccccc" />
      <path
         d="m 211.26525,90.644839 c -0.784,0 -1.404,-0.228 -1.86,-0.684 -0.456,-0.456 -0.684,-1.108 -0.684,-1.956 v -2.079534 c 0,-0.848 0.228,-1.5 0.684,-1.956 0.456,-0.456 1.076,-0.684 1.86,-0.684 0.784,0 1.404,0.228 1.86,0.684 0.456,0.456 0.684,1.104 0.684,1.944 v 2.091534 c 0,0.848 -0.228,1.5 -0.684,1.956 -0.456,0.456 -1.076,0.684 -1.86,0.684 z m 0,-0.972 c 0.472,0 0.832,-0.132 1.08,-0.396 0.256,-0.272 0.384,-0.656 0.384,-1.152 v -2.319534 c 0,-0.496 -0.128,-0.876 -0.384,-1.14 -0.248,-0.272 -0.608,-0.408 -1.08,-0.408 -0.464,0 -0.824,0.136 -1.08,0.408 -0.256,0.264 -0.384,0.644 -0.384,1.14 v 2.319534 c 0,0.496 0.128,0.88 0.384,1.152 0.256,0.264 0.616,0.396 1.08,0.396 z"
         style="font-family:'JetBrainsMonoNL Nerd Font';-inkscape-font-specification:'JetBrainsMonoNL Nerd Font';stroke:none"
         id="path10668"
         sodipodi:nodetypes="sssssssssssscsscscsscs" />
      <path
         d="m 215.94526,90.524839 v -7.119534 h 1.44 l 2.676,5.859534 c -0.016,-0.2 -0.036,-0.444 -0.06,-0.732 -0.016,-0.296 -0.032,-0.604 -0.048,-0.924 -0.008,-0.328 -0.012,-0.636 -0.012,-0.924 v -3.279534 h 1.044 v 7.119534 h -1.44 l -2.664,-5.859534 c 0.016,0.192 0.032,0.436 0.048,0.732 0.016,0.288 0.028,0.596 0.036,0.924 0.016,0.32 0.024,0.628 0.024,0.924 v 3.279534 z"
         style="font-family:'JetBrainsMonoNL Nerd Font';-inkscape-font-specification:'JetBrainsMonoNL Nerd Font';stroke:none"
         id="path10670"
         sodipodi:nodetypes="ccccccscccccccscc" />
    </g>
    <g
       id="g11275"
       transform="matrix(1.6501732,0,0,1.6501732,8.6678733,-64.102799)">
      <path
         id="path10662"
         style="font-family:'JetBrainsMonoNL Nerd Font';-inkscape-font-specification:'JetBrainsMonoNL Nerd Font';white-space:pre;shape-inside:url(#rect8406);stroke:none;paint-order:stroke fill markers"
         d="m 186.4853,83.40533 2.63989,4.780877 v 0.282641 c 0.0562,-0.0032 0.3743,-0.07536 0.53805,-0.122211 0.14879,-0.04257 0.41305,-0.139595 0.54194,-0.197505 l 0.22719,-0.423406 2.41296,-4.320391 h -1.11615 c -0.68897,1.087322 -1.01525,2.262967 -1.8144,2.345582 0.005,0.247923 0.0196,0.455996 0.0364,0.500058 0.0211,0.05539 0.0997,0.169306 0.17485,0.253119 0.20475,0.228392 0.27393,0.389218 0.25998,0.605333 -0.0103,0.159372 -0.0258,0.190266 -0.10093,0.200939 -0.0692,0.0099 -0.0942,-0.01196 -0.11351,-0.100011 -0.0748,-0.341644 -0.21457,-0.461153 -0.45749,-0.461153 -0.24293,0 -0.38586,0.119509 -0.4607,0.461153 -0.0193,0.08804 -0.0442,0.109887 -0.11351,0.100011 -0.0751,-0.01068 -0.0906,-0.04158 -0.10093,-0.200939 -0.0139,-0.216115 0.0553,-0.376941 0.25999,-0.605333 0.0751,-0.08381 0.15399,-0.197751 0.17508,-0.253119 0.0168,-0.04426 0.0308,-0.253934 0.0359,-0.503262 -0.8057,-0.09722 -1.17823,-1.255046 -1.87276,-2.342378 z m 3.71988,5.089838 c -0.0167,0.0055 -0.11517,0.03477 -0.22428,0.06683 -0.24106,0.07081 -0.38143,0.102872 -0.66644,0.15242 l -0.18927,0.03296 v 0.447192 c 0.0249,-0.0038 0.0779,-0.01342 0.13709,-0.02517 0.28521,-0.05667 0.62985,-0.160272 0.86349,-0.259298 l 0.0794,-0.03341 z m 0,0.726857 c -0.0179,0.0046 -0.0619,0.01733 -0.12518,0.03685 -0.0765,0.02357 -0.14088,0.04301 -0.21261,0.06156 -0.11976,0.03101 -0.24113,0.05814 -0.3632,0.08308 -0.0945,0.01928 -0.21735,0.04095 -0.28585,0.05149 l -0.0932,0.01419 v 1.055728 h 1.07999 l 0.002,-0.582223 c -0.016,0.0036 -0.0464,0.01209 -0.0826,0.02357 -0.0475,0.01505 -0.16368,0.04794 -0.24785,0.06614 -0.0526,0.01138 -0.10662,0.01854 -0.1602,0.02678 -0.094,0.01448 -0.0637,-0.0039 -0.28287,0.03959 -0.0784,0.0092 -0.0874,-0.004 -0.0199,-0.02907 0.0716,-0.02662 0.14249,-0.06769 0.20872,-0.107106 0.0713,-0.04247 0.1283,-0.105449 0.20208,-0.138918 0.18891,-0.0857 0.17955,-0.0796 0.33434,-0.157679 l 0.0467,-0.04783 z"
         sodipodi:nodetypes="cccsccccccccccscccscccccccccccccccccccccccsccccsccc"
         transform="matrix(2.2579975,0,0,2.2579975,-354.21099,-85.682127)" />
      <path
         style="fill:#000000;stroke-width:0.103856"
         d="m 72.148969,106.12009 c -0.33563,-0.13335 -0.62754,-0.50683 -0.86346,-1.10437 -0.23456,-0.5941 -0.20654,-1.62834 0.0565,-2.08561 l 0.16981,-0.29519 0.35312,0.32564 c 0.35302,0.32557 0.35312,0.85506 0.35726,1.62317 l 0.005,0.76834 0.24415,-0.50967 0.24416,-1.03888 0.38176,0.37276 c 0.20998,0.205 0.38181,0.42094 0.38187,0.47984 3e-5,0.0589 -0.0503,0.3167 -0.11188,0.57288 -0.16857,0.70137 -0.70577,1.09457 -1.21745,0.89108 z m 3.26395,-0.007 c -0.30225,-0.1537 -0.65637,-0.84859 -0.65637,-1.28773 0,-0.23679 0.0917,-0.40923 0.35225,-0.66238 l 0.35224,-0.34226 0.23612,0.99663 c 0.0664,0.28027 0.25931,0.4675 0.28765,0.4675 0.0285,0 0.0357,-0.33193 0.0163,-0.73764 l -0.0353,-1.26681 0.34863,-0.29441 c 0.39118,-0.33035 0.48759,-0.26953 0.69901,0.44124 0.40542,1.36292 -0.66636,3.16134 -1.60069,2.68586 z"
         id="path11032-0"
         sodipodi:nodetypes="csscsccccssccccsscssccsscc" />
    </g>
  </g>
</svg>
